<svg xmlns="http://www.w3.org/2000/svg" width="38.888" height="38.458"><g stroke-linecap="round"><path d="m20.75 17.434 7.96 10.374.973 1.078-10.707-9.704-.916-1.077" stroke-width="0" fill="#868e96"/><path d="M19.122 17.655c2.061 3.902 8.065 6.281 9.52 9.573m-9.52-9.573c3.626 2.91 7.496 7.312 9.52 9.573m0 0c-.579 1.773.955-.527-.002.495m.001-.495c-2.532.134.847.667-.001.495m0 0c-.142.099-.206.162-.49.487m.49-.487c-.192.219-.411.367-.49.487m0 0c-.783 1.95.584 1.126-.494-.002m.494.002c-.59 1.193-1.12-1.425-.494-.002m0 0c-2.888-4.052-4.474-6.058-9.52-9.572m9.52 9.572c-3.235-4.004-6.896-7.062-9.52-9.572m0 0c1.313.838-.104 1.781.002-.495m-.002.495c-1.051 1.835 1.89-.469.002-.495m0 0c.127-.057.24-.212.49-.487m-.49.487c.135-.149.255-.297.49-.487m0 0c2.105.515 1.493-.738.494.001m-.495-.001c.598 1.055-.994-.858.495.001" stroke="#000" fill="none"/></g><g stroke-linecap="round"><path d="M18.95 9.64c1.22.37 3.02 2.3 3.87 3.66.86 1.36 1.45 2.93 1.25 4.48-.21 1.54-1.27 3.72-2.47 4.79-1.2 1.07-3.28 1.89-4.73 1.63-1.46-.26-2.84-2.22-4.01-3.21-1.17-.98-2.87-1.53-3.02-2.69-.16-1.16 1.18-3 2.09-4.27.91-1.26 1.98-2.74 3.36-3.32 1.37-.59 4.12-.14 4.89-.21.77-.07-.04-.31-.27-.21m-6.11.39c1.03-.63 2.8.22 4.3.52 1.51.3 3.84.13 4.73 1.28.9 1.16.77 3.96.66 5.65-.11 1.69-.25 3.57-1.34 4.49-1.08.93-3.74 1.33-5.16 1.06-1.43-.27-2.3-1.89-3.39-2.66-1.08-.76-2.51-.52-3.14-1.94-.63-1.41-1.49-5.34-.64-6.55s5.09-.32 5.76-.72c.67-.41-1.44-1.81-1.73-1.71" stroke-width="0" fill="#868e96"/><path d="M15.43 10.61c1.37-.43 4.22-1.16 5.43-.61 1.21.55 1.34 2.38 1.83 3.9.49 1.51 1.74 3.63 1.1 5.19-.63 1.57-3.63 3.38-4.92 4.2-1.29.82-1.48 1.22-2.83.71-1.36-.51-4.36-2.53-5.31-3.79-.95-1.26-.59-2.59-.38-3.77.2-1.19.47-2.18 1.61-3.34 1.15-1.17 4.25-3.36 5.24-3.66.99-.3.65 1.66.7 1.85m-5.02.06c1.02-.73 2.78-1.9 4.53-1.71 1.75.18 4.78 1.43 5.97 2.82 1.2 1.39 1.4 4.25 1.21 5.52-.2 1.28-1.19 1.15-2.37 2.14-1.17.98-3.36 3.25-4.68 3.77-1.32.52-2.02.19-3.23-.65-1.2-.83-3.48-2.64-4-4.35-.52-1.71.39-4.55.88-5.92.5-1.38 1.62-2.11 2.07-2.33.45-.22.7 1.07.64 1.02" stroke="#000" fill="none"/></g><g stroke-linecap="round"><path d="M17.786 12.896c.88.48 2.5 1.77 3.08 2.75.58.99.48 2.23.4 3.14-.07.91-.22 1.74-.86 2.33-.64.59-1.7 1.37-2.96 1.23-1.25-.15-3.78-1.46-4.58-2.08-.79-.63-.33-.85-.21-1.69.11-.84.4-2.49.91-3.38.5-.89 1.19-1.62 2.12-1.96.92-.35 2.85-.05 3.43-.09.57-.04.04-.06 0-.15m-1.32-1.66c.86.26 2.85 1.88 3.32 2.85.47.97-.43 1.79-.5 2.97-.06 1.18.46 3.27.11 4.1-.35.82-1.23.63-2.21.84-.98.2-2.52.88-3.66.38-1.15-.5-2.99-2.01-3.2-3.37-.21-1.36 1.64-3.92 1.95-4.77.32-.85-.92.13-.04-.32.89-.46 4.77-2 5.36-2.42.58-.42-1.83-.5-1.85-.1" stroke-width="0" fill="#fff"/><path d="M18.476 13.096c.81.17.79-.05 1.2.81.41.86 1.15 3.45 1.24 4.35.09.9-.22.37-.69 1.07-.48.69-1.29 2.94-2.17 3.09-.89.15-2.07-1.58-3.15-2.21-1.08-.63-2.91-.76-3.34-1.57-.43-.81.12-2.3.77-3.3.66-.99 2.24-2.07 3.18-2.68.94-.6 1.73-1.04 2.46-.94.73.09 1.89 1.46 1.94 1.51m-2.25-1.75c.93.36 1.24 2.4 1.85 3.44.61 1.04 1.45 1.89 1.82 2.79.37.89 1.13 1.93.42 2.59-.71.65-3.64.93-4.68 1.32-1.04.39-.97 1.44-1.57 1.03-.59-.41-1.48-2.48-2-3.5-.52-1.01-.99-1.53-1.1-2.59-.12-1.06-.34-3.08.41-3.77.76-.69 3.3-.11 4.14-.36.84-.26 1.05-1.3.9-1.16" stroke="#000" fill="none"/></g></svg>
