<svg xmlns="http://www.w3.org/2000/svg" width="41.955" height="50.447"><g><path d="m18.368 15.06 10.03-1.29 2.3 3.73-1.19 19.28-2.41 3.42-10.71-1.86-3.3 1.41-1.94-25.1 4.03-.67" fill="#868e96"/><path d="M17.038 13.7c2.58.15 4.94-.32 8.72 0m-8.72 0c3.15.19 6.39-.36 8.72 0m0 0c4.48-1.41 5.19 1.55 4.36 4.36m-4.36-4.36c3.76.67 2.78 2.21 4.36 4.36m0 0c-.45 5.18-1.25 8.47 0 18.03m0-18.03c-.03 3.44.1 8.67 0 18.03m0 0c-.98 4.66-1.57 4.44-4.36 4.36m4.36-4.36c-.35 2.37.41 3.37-4.36 4.36m0 0c-1.5-.16-4.02-.3-8.72 0m8.72 0c-3.45-.32-6.7.32-8.72 0m0 0c-2.55-.26-3.59-1.32-4.36-4.36m4.36 4.36c-1.06.8-2.94-3.13-4.36-4.36m0 0c.47-2.8-1.17-6.01 0-18.03m0 18.03c-.65-4.74.77-8.38 0-18.03m0 0c-.14-3.44.69-2.63 4.36-4.36m-4.36 4.36c.18-4.46.88-5.36 4.36-4.36" stroke="#000"/></g><g><path d="m12.42 12.422 18.27.12 2.61 1.74-1.72 1.11-20.48 1.83-2.94-2.19 4.67-5.15" fill="#868e96"/><path d="M11.07 11.692c3.63.38 7.62.73 19.82 0m-19.82 0c7.03-.66 13.21-.45 19.82 0m0 0c1.95-1.74-.22 1.93 1.06 1.07m-1.06-1.07c-.92.95 1.17 1.21 1.06 1.07m0 0c-.21.64.12 1.36 0 2.13m0-2.13c-.1.76-.04 1.63 0 2.13m0 0c-1.05 1.13 1.54.08-1.06 1.07m1.06-1.07c2.03.58-.26.72-1.06 1.07m0 0c-6.33-.64-9.08 1.6-19.82 0m19.82 0c-4.52.8-11.6-.21-19.82 0m0 0c-1.86.45.75 0-1.07-1.07m1.07 1.07c-1.01.89-.92 1.5-1.07-1.07m0 0c-.2-.57-.08-1.36 0-2.13m0 2.13c-.07-.8.1-1.61 0-2.13m0 0c-1.5.84-.2-1.21 1.07-1.07M10 12.762c-.61-1.59 2.35-.89 1.07-1.07" stroke="#000"/></g><g><path d="m15.369 9.8 13.36 1.54-1.05.6-13.6-.25 1.82-3.53" fill="#868e96"/><path d="M14.639 10c3.08-1.11 8.32-.43 13.24 0m-13.24 0c4.32.28 8.2.53 13.24 0m0 0c-1.22 1.8-.68 1.38.41.41m-.41-.41c-1.73-1.47 2.22-1.49.41.41m0 0c.03.23.03.49 0 .83m0-.83c.04.2.03.42 0 .83m0 0c-.98-.36-.02-.63-.41.42m.41-.42c.48 2.46-1.27 2.44-.41.42m0 0c-4.21 1.04-8.36-.59-13.24 0m13.24 0c-3.79.46-7.5.7-13.24 0m0 0c1.52-1.61-.66-1.28-.41-.42m.41.42c.24 2.09 0-.44-.41-.42m0 0c.03-.23-.06-.63 0-.83m0 .83c.03-.33.04-.64 0-.83m0 0c-.76 1.3-1.46-1.91.41-.41m-.41.41c1.79-.91-.02-1.02.41-.41" stroke="#000"/></g><path d="M17.386 19.823c.27 2.48.64 12.91.69 15.71m-1.73-16.94c.16 2.6.91 15.62 1 18.3M20.812 20.543c.04 2.48.74 12.92 1.11 15.28m.9-16.11c-.19 2.62-2 15.04-2.03 17.66M26.656 21.182c.05 2.8.75 14.09.68 16.78m-1.92-18.01c-.18 2.5.46 13.16.98 16.28" stroke="#000"/></svg>
